# xmcd
#
# Track frame offsets:
#	150
#	20033
#	33788
#	44345
#	65893
#	84933
#	98515
#	115850
#	129005
#	149653
#	166733
#
# Disc length: 2423 seconds
#
# Revision: 0
# Processed by: cddbd v1.4PL0 Copyright (c) Steve Scherf et al.
# Submitted via: dBpowerAMP V4.0
#
DISCID=8809750b
DTITLE=Cybill Sheperd - Talk Memphis to Me
DYEAR=1900
DGENRE=Vocal
TTITLE0=Roll Big Muddy
TTITLE1=Beale Street Blues
TTITLE2=Tennessee Waltz
TTITLE3=Walkin' the Dog/Who's Makin' Love
TTITLE4=Power of Love
TTITLE5=Muddy Water
TTITLE6=If I Could
TTITLE7=Moma's Cookin'
TTITLE8=Find Another Fool
TTITLE9=Talk Memphis to Me
TTITLE10=You Never Know(Where You Will Find a Friend)
EXTD=
EXTT0=
EXTT1=
EXTT2=
EXTT3=
EXTT4=
EXTT5=
EXTT6=
EXTT7=
EXTT8=
EXTT9=
EXTT10=
PLAYORDER=
